<svg width="500" height="331" viewBox="0 0 500 331" fill="none" xmlns="http://www.w3.org/2000/svg">
<path fill-rule="evenodd" clip-rule="evenodd" d="M45.359 0.257777C45.006 0.619777 37.131 1.16672 27.859 1.47372C15.584 1.88072 10.571 2.40874 9.42102 3.41574C8.55302 4.17674 7.50599 4.79977 7.09399 4.79977C6.68299 4.79977 4.91797 6.22774 3.17297 7.97274C0.132974 11.0127 0 11.4837 0 19.2227V27.2998L35.701 63.0498C55.337 82.7118 71.874 98.7998 72.451 98.7998C73.028 98.7998 73.5 99.2717 73.5 99.8487C73.5 101.218 93.082 120.8 94.451 120.8C95.028 120.8 95.5 121.268 95.5 121.839C95.5 122.41 97.188 124.635 99.25 126.781C101.313 128.928 104.35 132.279 106 134.228C107.65 136.177 110.076 138.791 111.391 140.036C114.993 143.446 143.239 171.869 149.348 178.231C152.29 181.294 155.102 183.8 155.598 183.8C156.094 183.8 156.5 184.475 156.5 185.3C156.5 186.125 156.909 186.8 157.41 186.8C158.699 186.8 173.5 201.466 173.5 202.744C173.5 203.325 174.099 203.8 174.831 203.8C175.563 203.8 176.738 204.875 177.441 206.19C178.145 207.504 179.746 209.129 181 209.8C182.254 210.471 183.855 212.096 184.559 213.41C185.262 214.725 186.437 215.8 187.169 215.8C187.901 215.8 188.5 216.27 188.5 216.845C188.5 218.203 193.097 222.8 194.455 222.8C195.03 222.8 195.5 223.25 195.5 223.801C195.5 225.018 203.387 232.8 204.621 232.8C205.104 232.8 205.5 233.31 205.5 233.934C205.5 235.131 210.472 239.797 211.75 239.799C212.162 239.799 212.5 240.282 212.5 240.871C212.5 242.256 215.044 244.8 216.429 244.8C217.018 244.8 217.5 245.266 217.5 245.835C217.5 247.126 242.26 271.8 243.555 271.8C244.075 271.8 244.5 272.271 244.5 272.848C244.5 273.424 246.729 276.124 249.452 278.848C252.176 281.571 254.876 283.8 255.452 283.8C256.029 283.8 256.5 284.25 256.5 284.8C256.5 285.35 261 290.3 266.5 295.8C272 301.3 276.95 305.8 277.5 305.8C278.05 305.8 278.5 306.282 278.5 306.871C278.5 308.256 281.044 310.8 282.429 310.8C283.018 310.8 283.5 311.282 283.5 311.871C283.5 313.037 285.962 315.8 287 315.8C287.354 315.8 288.27 316.363 289.037 317.05C292.346 320.018 293.477 320.8 294.458 320.8C295.031 320.8 295.5 321.201 295.5 321.692C295.5 322.182 296.625 322.866 298 323.211C299.375 323.556 300.5 324.28 300.5 324.819C300.5 325.359 301.598 325.8 302.941 325.8C304.284 325.8 305.66 326.25 306 326.8C306.34 327.35 307.749 327.8 309.13 327.8C310.512 327.8 312.318 328.475 313.143 329.3C314.453 330.611 325.738 330.8 402.5 330.8C479.262 330.8 490.547 330.611 491.857 329.3C492.682 328.475 493.646 327.8 494 327.8C495.038 327.8 497.5 325.037 497.5 323.871C497.5 323.282 497.95 322.8 498.5 322.8C499.078 322.8 499.5 319.616 499.5 315.249V307.699L440 248.145C407.275 215.391 380.5 188.179 380.5 187.674C380.5 187.17 379.424 186.267 378.11 185.668C376.795 185.069 375.171 183.553 374.5 182.3C373.829 181.046 372.242 179.465 370.974 178.786C369.706 178.107 368.448 176.71 368.179 175.681C367.91 174.652 366.86 173.503 365.845 173.128C364.83 172.753 363.716 172.024 363.37 171.508C361.343 168.491 341.511 147.712 333.402 140.11C331.531 138.356 328.447 135.318 326.548 133.36C324.65 131.402 322.737 129.8 322.298 129.8C321.859 129.8 321.5 129.326 321.5 128.746C321.5 127.4 205.853 11.7998 204.506 11.7998C203.953 11.7998 203.5 11.3498 203.5 10.7998C203.5 10.2498 202.793 9.79977 201.929 9.79977C201.064 9.79977 199.682 9.12477 198.857 8.29977C198.032 7.47477 196.264 6.79977 194.929 6.79977C193.593 6.79977 192.5 6.34977 192.5 5.79977C192.5 5.24977 191.15 4.79977 189.5 4.79977C187.85 4.79977 186.5 4.38978 186.5 3.88778C186.5 1.99078 176.948 1.63472 117.808 1.32772C84.363 1.15472 54.525 0.694727 51.5 0.306727C48.475 -0.0822726 45.711 -0.104223 45.359 0.257777Z" fill="url(#paint0_linear_2951_91)"/>
<defs>
<linearGradient id="paint0_linear_2951_91" x1="130.7" y1="55.3794" x2="369.92" y2="325.204" gradientUnits="userSpaceOnUse">
<stop stop-color="#902FF7"/>
<stop offset="1" stop-color="#5C20ED"/>
</linearGradient>
</defs>
</svg>
